<?xml version="1.0" encoding="UTF-8"?>
<svg xmlns="http://www.w3.org/2000/svg" viewBox="0 0 1000 400">
  <!-- Background Stars -->
  <g fill="#ffffff" opacity="0.15">
    <circle cx="50" cy="50" r="1" />
    <circle cx="150" cy="80" r="1.5" />
    <circle cx="250" cy="30" r="1" />
    <circle cx="350" cy="90" r="1.2" />
    <circle cx="450" cy="40" r="1" />
    <circle cx="550" cy="70" r="1.3" />
    <circle cx="650" cy="20" r="1" />
    <circle cx="750" cy="60" r="1.4" />
    <circle cx="850" cy="35" r="1" />
    <circle cx="950" cy="85" r="1.2" />
    <!-- Second row -->
    <circle cx="100" cy="150" r="1.2" />
    <circle cx="200" cy="180" r="1" />
    <circle cx="300" cy="130" r="1.5" />
    <circle cx="400" cy="190" r="1" />
    <circle cx="500" cy="140" r="1.3" />
    <circle cx="600" cy="170" r="1" />
    <circle cx="700" cy="120" r="1.4" />
    <circle cx="800" cy="160" r="1" />
    <circle cx="900" cy="135" r="1.2" />
  </g>

  <!-- Death Star (Partial) -->
  <g opacity="0.1">
    <path d="M900 300 A150 150 0 0 1 750 450" fill="none" stroke="#ffffff" stroke-width="2"/>
    <path d="M840 380 A50 50 0 0 1 790 430" fill="none" stroke="#ffffff" stroke-width="2"/>
    <line x1="820" y1="350" x2="840" y2="370" stroke="#ffffff" stroke-width="2"/>
    <line x1="850" y1="380" x2="870" y2="400" stroke="#ffffff" stroke-width="2"/>
  </g>

  <!-- X-Wing Fighter -->
  <g opacity="0.1">
    <path d="M100 200 L150 180 L200 200 L150 220 Z" fill="none" stroke="#ffffff" stroke-width="2"/>
    <line x1="150" y1="180" x2="150" y2="220" stroke="#ffffff" stroke-width="2"/>
    <line x1="120" y1="185" x2="180" y2="215" stroke="#ffffff" stroke-width="2"/>
    <line x1="120" y1="215" x2="180" y2="185" stroke="#ffffff" stroke-width="2"/>
  </g>

  <!-- TIE Fighter -->
  <g opacity="0.1">
    <circle cx="300" cy="250" r="15" fill="none" stroke="#ffffff" stroke-width="2"/>
    <rect x="270" y="220" width="60" height="60" fill="none" stroke="#ffffff" stroke-width="2"/>
    <line x1="300" y1="235" x2="300" y2="265" stroke="#ffffff" stroke-width="2"/>
    <line x1="285" y1="250" x2="315" y2="250" stroke="#ffffff" stroke-width="2"/>
  </g>

  <!-- Millennium Falcon (Simplified) -->
  <g opacity="0.1">
    <path d="M500 200 Q530 180 560 200 Q530 220 500 200" fill="none" stroke="#ffffff" stroke-width="2"/>
    <path d="M520 190 L540 190 L540 210 L520 210" fill="none" stroke="#ffffff" stroke-width="2"/>
    <circle cx="510" cy="200" r="5" fill="none" stroke="#ffffff" stroke-width="2"/>
  </g

  <!-- Lightsaber -->
  <g opacity="0.1">
    <rect x="650" y="180" width="20" height="5" fill="#ffffff"/>
    <rect x="670" y="179" width="80" height="7" fill="#ffffff" opacity="0.3"/>
  </g>
</svg>
